{
  "accessors": [
    {
      "bufferView": 2,
      "componentType": 5126,
      "count": 65532,
      "max": [
        6.665398120880127,
        1.8563950061798096,
        3.1183700561523438
      ],
      "min": [
        -9.827409744262695,
        -40.715919494628906,
        -7.818864822387695
      ],
      "type": "VEC3"
    },
    {
      "bufferView": 2,
      "byteOffset": 786384,
      "componentType": 5126,
      "count": 65532,
      "max": [
        0.9999826550483704,
        0.9998327493667603,
        0.9999486207962036
      ],
      "min": [
        -0.9999539852142334,
        -0.9999982118606567,
        -0.9999967813491821
      ],
      "type": "VEC3"
    },
    {
      "bufferView": 1,
      "componentType": 5126,
      "count": 65532,
      "max": [
        0.9979709982872009,
        0.9979709982872009
      ],
      "min": [
        0.004058000165969133,
        0.004058000165969133
      ],
      "type": "VEC2"
    },
    {
      "bufferView": 0,
      "componentType": 5125,
      "count": 343323,
      "type": "SCALAR"
    },
    {
      "bufferView": 2,
      "byteOffset": 1572768,
      "componentType": 5126,
      "count": 65532,
      "max": [
        5.438694953918457,
        1.8647609949111938,
        7.882853031158447
      ],
      "min": [
        -6.469770908355713,
        -40.55888366699219,
        -4.544468879699707
      ],
      "type": "VEC3"
    },
    {
      "bufferView": 2,
      "byteOffset": 2359152,
      "componentType": 5126,
      "count": 65532,
      "max": [
        0.9999638795852661,
        0.9986734986305237,
        0.9999706149101257
      ],
      "min": [
        -0.9999849796295166,
        -0.999962329864502,
        -0.9999681115150452
      ],
      "type": "VEC3"
    },
    {
      "bufferView": 1,
      "byteOffset": 524256,
      "componentType": 5126,
      "count": 65532,
      "max": [
        0.9979709982872009,
        0.9979709982872009
      ],
      "min": [
        0.004058000165969133,
        0.004058000165969133
      ],
      "type": "VEC2"
    },
    {
      "bufferView": 0,
      "byteOffset": 1373292,
      "componentType": 5125,
      "count": 351024,
      "type": "SCALAR"
    },
    {
      "bufferView": 2,
      "byteOffset": 3145536,
      "componentType": 5126,
      "count": 65532,
      "max": [
        5.438694953918457,
        1.8617210388183594,
        7.777286052703857
      ],
      "min": [
        -6.859127998352051,
        -40.07790756225586,
        -5.949388027191162
      ],
      "type": "VEC3"
    },
    {
      "bufferView": 2,
      "byteOffset": 3931920,
      "componentType": 5126,
      "count": 65532,
      "max": [
        0.9999549984931946,
        0.9988766312599182,
        0.9999883770942688
      ],
      "min": [
        -0.9999985694885254,
        -0.9999940991401672,
        -0.9999897480010986
      ],
      "type": "VEC3"
    },
    {
      "bufferView": 1,
      "byteOffset": 1048512,
      "componentType": 5126,
      "count": 65532,
      "max": [
        0.9979709982872009,
        0.9979709982872009
      ],
      "min": [
        0.004058000165969133,
        0.004058000165969133
      ],
      "type": "VEC2"
    },
    {
      "bufferView": 0,
      "byteOffset": 2777388,
      "componentType": 5125,
      "count": 351597,
      "type": "SCALAR"
    },
    {
      "bufferView": 2,
      "byteOffset": 4718304,
      "componentType": 5126,
      "count": 30698,
      "max": [
        5.438694953918457,
        -8.615049362182617,
        2.943082094192505
      ],
      "min": [
        -6.3690009117126465,
        -30.33565330505371,
        -4.9184770584106445
      ],
      "type": "VEC3"
    },
    {
      "bufferView": 2,
      "byteOffset": 5086680,
      "componentType": 5126,
      "count": 30698,
      "max": [
        0.999984860420227,
        0.9929248690605164,
        0.9999368786811829
      ],
      "min": [
        -0.9999992251396179,
        -0.9998895525932312,
        -0.9999971389770508
      ],
      "type": "VEC3"
    },
    {
      "bufferView": 1,
      "byteOffset": 1572768,
      "componentType": 5126,
      "count": 30698,
      "max": [
        0.9979709982872009,
        0.9978439807891846
      ],
      "min": [
        0.004058000165969133,
        0.004058000165969133
      ],
      "type": "VEC2"
    },
    {
      "bufferView": 0,
      "byteOffset": 4183776,
      "componentType": 5125,
      "count": 161082,
      "type": "SCALAR"
    }
  ],
  "asset": {
    "extras": {
      "author": "Geoffrey Marchal (https://sketchfab.com/geoffreymarchal)",
      "license": "SKETCHFAB Standard (https://sketchfab.com/licenses)",
      "source": "https://sketchfab.com/3d-models/aphrodite-called-hera-borghese-73f0a4fd99c6470d8214db1f59cc1f60",
      "title": "Aphrodite, called \"Hera Borghese\""
    },
    "generator": "Sketchfab-14.32.0",
    "version": "2.0"
  },
  "bufferViews": [
    {
      "buffer": 0,
      "byteLength": 4828104,
      "name": "floatBufferViews",
      "target": 34963
    },
    {
      "buffer": 0,
      "byteLength": 1818352,
      "byteOffset": 4828104,
      "byteStride": 8,
      "name": "floatBufferViews",
      "target": 34962
    },
    {
      "buffer": 0,
      "byteLength": 5455056,
      "byteOffset": 6646456,
      "byteStride": 12,
      "name": "floatBufferViews",
      "target": 34962
    }
  ],
  "buffers": [
    {
      "byteLength": 12101512,
      "uri": "scene.bin"
    }
  ],
  "images": [
    {
      "uri": "textures/Material_0_baseColor.jpeg"
    }
  ],
  "materials": [
    {
      "doubleSided": true,
      "name": "Material_0",
      "pbrMetallicRoughness": {
        "baseColorTexture": {
          "index": 0
        },
        "metallicFactor": 0.0,
        "roughnessFactor": 0.9
      }
    }
  ],
  "meshes": [
    {
      "name": "Object_0",
      "primitives": [
        {
          "attributes": {
            "NORMAL": 1,
            "POSITION": 0,
            "TEXCOORD_0": 2
          },
          "indices": 3,
          "material": 0,
          "mode": 4
        }
      ]
    },
    {
      "name": "Object_1",
      "primitives": [
        {
          "attributes": {
            "NORMAL": 5,
            "POSITION": 4,
            "TEXCOORD_0": 6
          },
          "indices": 7,
          "material": 0,
          "mode": 4
        }
      ]
    },
    {
      "name": "Object_2",
      "primitives": [
        {
          "attributes": {
            "NORMAL": 9,
            "POSITION": 8,
            "TEXCOORD_0": 10
          },
          "indices": 11,
          "material": 0,
          "mode": 4
        }
      ]
    },
    {
      "name": "Object_3",
      "primitives": [
        {
          "attributes": {
            "NORMAL": 13,
            "POSITION": 12,
            "TEXCOORD_0": 14
          },
          "indices": 15,
          "material": 0,
          "mode": 4
        }
      ]
    }
  ],
  "nodes": [
    {
      "children": [
        1
      ],
      "matrix": [
        0.8592639565467834,
        -5.807187741459539e-17,
        0.5115324854850769,
        0.0,
        -2.7755575615628914e-16,
        -1.0,
        4.3021142204224816e-16,
        0.0,
        0.5115324854850769,
        -5.30850040248602e-16,
        -0.8592639565467834,
        0.0,
        0.0,
        0.0,
        0.0,
        1.0
      ],
      "name": "Sketchfab_model"
    },
    {
      "children": [
        2,
        3,
        4,
        5
      ],
      "name": "aphroborg.obj.cleaner.materialmerger.gles"
    },
    {
      "mesh": 0,
      "name": "Object_2"
    },
    {
      "mesh": 1,
      "name": "Object_3"
    },
    {
      "mesh": 2,
      "name": "Object_4"
    },
    {
      "mesh": 3,
      "name": "Object_5"
    }
  ],
  "samplers": [
    {
      "magFilter": 9729,
      "minFilter": 9987,
      "wrapS": 10497,
      "wrapT": 10497
    }
  ],
  "scene": 0,
  "scenes": [
    {
      "name": "Sketchfab_Scene",
      "nodes": [
        0
      ]
    }
  ],
  "textures": [
    {
      "sampler": 0,
      "source": 0
    }
  ]
}
